<svg width="149" height="35" viewBox="0 0 149 35" fill="none" xmlns="http://www.w3.org/2000/svg">
<path fill-rule="evenodd" clip-rule="evenodd" d="M3.75244 24.7422C3.75244 25.3181 4.24332 25.8118 4.81601 25.8118C5.38871 25.8118 5.87959 25.3181 5.87959 24.8244V15.6095C5.87959 15.3626 5.9614 15.1158 6.12503 14.9513L14.0609 5.07809C14.3882 4.6667 14.47 4.09077 14.1427 3.67939C13.7337 3.02117 12.8337 3.02117 12.4246 3.59711L3.99788 14.1285C3.83425 14.2931 3.75244 14.5399 3.75244 14.7867V24.7422ZM14.2246 31.5711C14.3882 31.7356 14.6337 31.8179 14.8791 31.8179H15.1245L30.26 26.8813C30.669 26.7168 30.9963 26.3054 30.9963 25.8117V14.293C30.9963 13.8816 30.7509 13.4703 30.4236 13.3057L22.8968 8.86277C22.4877 8.53366 21.8332 8.69822 21.506 9.1096L13.9791 18.4891C13.8155 18.6537 13.7337 18.9005 13.7337 19.1473V30.666C13.7337 30.9952 13.9792 31.3243 14.2246 31.5711ZM16.0245 28.9382V19.8878C16.0245 19.7233 16.1063 19.4764 16.1881 19.3119L22.5695 11.4133C22.6514 11.2488 22.815 11.2488 22.8968 11.3311L28.7055 14.7044C28.8692 14.7867 28.951 14.9512 28.951 15.1158V24.7421C28.951 24.989 28.8692 25.0712 28.7055 25.1535L16.3517 29.1851C16.1881 29.1851 16.0245 29.1028 16.0245 28.9382ZM9.80676 28.8561C9.23407 28.8561 8.74319 28.3624 8.74319 27.7865V17.0082C8.74319 16.7614 8.825 16.5146 8.98863 16.35L17.0063 6.39456C17.3336 5.98318 17.9063 5.81862 18.3153 6.06545C18.9698 6.39456 19.1335 7.21732 18.7244 7.79326L11.1158 17.3373C11.034 17.4196 10.9521 17.5842 10.9521 17.6664V27.7865C10.9521 28.3624 10.4613 28.8561 9.80676 28.8561ZM22.6514 16.9259C23.6331 16.5968 24.4512 17.0905 24.4512 18.1601C24.4512 18.736 23.9604 19.5588 23.4695 20.0524L24.0422 23.508C24.124 23.6726 24.0422 23.7549 23.8786 23.8372L21.7514 24.4954C21.506 24.4954 21.3423 24.3308 21.3423 24.1663C21.4242 23.1789 21.8332 20.6284 21.8332 20.6284C21.3423 20.5461 20.8515 20.0524 20.8515 19.3942C20.8515 18.3246 21.6696 17.255 22.6514 16.9259Z" fill="white"/>
<g clip-path="url(#clip0_656_18)">
<path fill-rule="evenodd" clip-rule="evenodd" d="M71.3084 12.0312C68.7008 12.0312 66.5534 14.194 66.5534 16.8203V20.8369C66.5534 23.4631 68.7008 25.6259 71.3084 25.6259C73.9161 25.6259 76.0635 23.4631 76.0635 20.8369V16.8975C76.1402 14.194 73.9928 12.0312 71.3084 12.0312ZM74.683 20.9141C74.683 22.7679 73.2258 24.2355 71.3851 24.2355C69.5445 24.2355 68.0873 22.7679 68.0873 20.9141V16.8975C68.0873 15.0437 69.5445 13.5761 71.3851 13.5761C73.2258 13.5761 74.683 15.0437 74.683 16.8975V20.9141ZM113.183 12.4175H107.278C106.358 12.4175 105.667 13.1899 105.667 14.0396V23.6176C105.667 24.5445 106.358 25.2397 107.278 25.2397H113.183C113.26 25.2397 113.337 25.1624 113.337 25.0852V23.9266C113.337 23.8493 113.26 23.7721 113.183 23.7721H107.278C107.201 23.7721 107.125 23.6948 107.125 23.6176V19.7555C107.125 19.6782 107.201 19.601 107.278 19.601H112.57C112.647 19.601 112.723 19.5238 112.723 19.4465V18.3651C112.723 18.2879 112.647 18.2106 112.57 18.2106H107.278C107.201 18.2106 107.125 18.1334 107.125 18.0562V14.194C107.125 14.1168 107.201 14.0396 107.278 14.0396H113.183C113.26 14.0396 113.337 13.9623 113.337 13.8851V12.6492C113.414 12.4947 113.337 12.4175 113.183 12.4175ZM54.129 18.5968C54.8193 17.9789 55.2027 17.052 55.2027 16.0478C55.2027 14.0395 53.5922 12.4947 51.6748 12.4947H46.9197C46.8431 12.4175 46.7664 12.4947 46.7664 12.6492V14.1168V23.6948V25.1624C46.7664 25.2397 46.8431 25.3169 46.9197 25.3169H52.365C54.3591 25.3169 55.893 23.6948 55.893 21.7638C55.9697 20.3734 55.2027 19.2148 54.129 18.5968ZM48.2236 14.1168C48.2236 14.0395 48.3002 13.9623 48.3769 13.9623H51.5981C52.7485 13.9623 53.6688 14.8892 53.6688 16.0478C53.6688 17.2065 52.7485 18.1334 51.5981 18.1334H48.3769C48.3002 18.1334 48.2236 18.0561 48.2236 17.9789V14.1168ZM52.365 23.8493H48.3769C48.3002 23.8493 48.2236 23.7721 48.2236 23.6948V19.8327C48.2236 19.7555 48.3002 19.6782 48.3769 19.6782H52.365C53.5155 19.6782 54.4358 20.6051 54.4358 21.7638C54.5125 22.9224 53.5155 23.8493 52.365 23.8493ZM60.4181 12.4175H61.4918C61.6452 12.4175 61.7219 12.4947 61.6452 12.6492V25.1624C61.6452 25.2397 61.5685 25.3169 61.4918 25.3169H60.4181C60.3414 25.3169 60.2647 25.2397 60.2647 25.1624V12.572C60.2647 12.4947 60.3414 12.4175 60.4181 12.4175ZM139.49 16.8203C139.49 14.194 141.637 12.0312 144.245 12.0312C146.929 12.0312 149 14.194 149 16.8975V20.8369C149 23.4631 146.852 25.6259 144.245 25.6259C141.637 25.6259 139.49 23.4631 139.49 20.8369V16.8203ZM144.321 24.2355C146.162 24.2355 147.619 22.7679 147.619 20.9141V16.8975C147.619 15.0437 146.162 13.5761 144.321 13.5761C142.481 13.5761 141.024 15.0437 141.024 16.8975V20.9141C141.024 22.7679 142.481 24.2355 144.321 24.2355ZM101.603 12.4175H98.3817C95.7741 12.4175 93.6266 14.5803 93.6266 17.2065V20.5279C93.6266 23.1541 95.7741 25.3169 98.3817 25.3169H101.603C101.68 25.3169 101.756 25.2397 101.756 25.1624V24.0038C101.756 23.9266 101.68 23.8493 101.603 23.8493H98.3817C96.541 23.8493 95.0838 22.3817 95.0838 20.5279V17.2837C95.0838 15.4299 96.541 13.9623 98.3817 13.9623H100.069H101.603C101.68 13.9623 101.756 13.8851 101.756 13.8078V12.6492C101.756 12.4947 101.68 12.4175 101.603 12.4175ZM121.927 18.1334C122.847 18.1334 123.231 18.2879 123.231 18.2879C124.688 18.7513 125.685 20.1417 125.685 21.6865C125.685 23.6948 124.151 25.3169 122.157 25.3169H118.245C118.169 25.3169 118.092 25.2397 118.092 25.1624V24.081C118.092 24.0038 118.169 23.9265 118.245 23.9265H122.157C123.307 23.9265 124.228 22.9224 124.228 21.7638C124.228 20.5279 123.307 19.601 122.157 19.601H121.16C120.546 19.601 120.086 19.4465 120.086 19.4465C118.629 18.983 117.632 17.6699 117.632 16.0478C117.632 14.1168 119.166 12.4947 121.16 12.4947H124.611C124.688 12.4947 124.764 12.5719 124.764 12.6492V13.8078C124.764 13.885 124.688 13.9623 124.611 13.9623H121.083C119.933 13.9623 119.012 14.8892 119.012 16.0478C119.012 17.2065 119.933 18.1334 121.083 18.1334H121.927ZM84.8836 12.0312C82.276 12.0312 80.1285 14.194 80.1285 16.8975V25.1624C80.1285 25.2397 80.2052 25.3169 80.2819 25.3169H81.4323C81.509 25.3169 81.5857 25.2397 81.5857 25.1624V19.601H88.1814V25.1624C88.1814 25.2397 88.2581 25.3169 88.3348 25.3169H89.4852C89.5619 25.3169 89.6386 25.2397 89.6386 25.1624V16.8975C89.6386 14.194 87.5679 12.0312 84.8836 12.0312ZM81.509 18.1334V16.8975C81.509 15.0437 82.9662 13.5761 84.8069 13.5761C86.6475 13.5761 88.1047 15.0437 88.1047 16.8975V18.1334H81.509ZM132.894 18.1334C133.815 18.1334 134.198 18.2879 134.198 18.2879C135.655 18.7513 136.652 20.1417 136.576 21.6865C136.576 23.6948 135.042 25.3169 133.048 25.3169H129.136C129.059 25.3169 128.983 25.2397 128.983 25.1624V24.081C128.983 24.0038 129.059 23.9265 129.136 23.9265H133.048C134.198 23.9265 135.118 22.9224 135.118 21.7638C135.118 20.5279 134.198 19.601 133.048 19.601H132.051C131.437 19.601 130.977 19.4465 130.977 19.4465C129.52 18.983 128.523 17.6699 128.523 16.0478C128.523 14.1168 130.056 12.4947 132.051 12.4947H135.578C135.655 12.4947 135.732 12.5719 135.732 12.6492V13.8078C135.732 13.885 135.655 13.9623 135.578 13.9623H132.051C130.9 13.9623 129.98 14.8892 129.98 16.0478C129.98 17.2065 130.9 18.1334 132.051 18.1334H132.894Z" fill="white"/>
</g>
<defs>
<clipPath id="clip0_656_18">
<rect width="102.234" height="13.6719" fill="white" transform="translate(46.7664 12.0312)"/>
</clipPath>
</defs>
</svg>
